<?xml version="1.0" standalone="no"?>
<!DOCTYPE svg PUBLIC "-//W3C//DTD SVG 20010904//EN"
 "http://www.w3.org/TR/2001/REC-SVG-20010904/DTD/svg10.dtd">
<svg version="1.0" xmlns="http://www.w3.org/2000/svg"
 width="902.000000pt" height="902.000000pt" viewBox="0 0 902.000000 902.000000"
 preserveAspectRatio="xMidYMid meet">
<metadata>
Created by potrace 1.11, written by Peter Selinger 2001-2013
</metadata>
<g transform="translate(0.000000,902.000000) scale(0.100000,-0.100000)"
fill="#000000" stroke="none">
<path d="M4480 8506 c-25 -7 -65 -21 -89 -30 -30 -11 -103 -20 -220 -26 -237
-13 -523 -54 -634 -91 -49 -16 -129 -36 -179 -44 -70 -12 -123 -31 -237 -84
-80 -37 -162 -74 -181 -81 -68 -27 -186 -93 -295 -164 -60 -40 -139 -89 -175
-110 -36 -21 -89 -57 -119 -79 -30 -23 -69 -51 -86 -62 -18 -11 -57 -36 -86
-56 -30 -20 -91 -59 -136 -88 -44 -29 -114 -87 -155 -129 -144 -149 -284 -297
-313 -332 -17 -19 -54 -54 -82 -78 -62 -51 -138 -163 -163 -239 -14 -43 -33
-70 -90 -128 -120 -120 -212 -282 -280 -490 -19 -55 -57 -158 -85 -230 -29
-71 -62 -175 -74 -230 -40 -185 -51 -225 -77 -282 -110 -249 -124 -308 -136
-593 -15 -339 -11 -537 13 -624 11 -39 35 -145 53 -236 106 -518 250 -950 445
-1330 223 -437 509 -829 697 -956 69 -47 84 -62 84 -83 0 -19 20 -45 77 -99
113 -108 219 -184 455 -326 161 -96 233 -133 295 -152 70 -21 88 -31 115 -65
17 -21 37 -39 43 -39 6 0 50 -20 97 -44 56 -28 116 -50 170 -61 49 -10 121
-35 178 -62 111 -53 163 -69 245 -77 34 -3 115 -18 180 -34 66 -16 147 -33
180 -36 33 -4 96 -19 140 -33 79 -25 84 -25 485 -28 460 -4 511 1 703 74 129
49 160 56 185 40 26 -16 81 -1 143 40 27 18 79 38 130 50 118 28 415 153 684
287 146 74 453 290 662 467 54 45 127 103 163 129 82 57 200 181 223 233 29
65 32 69 69 87 19 9 55 41 79 70 24 29 78 89 120 134 41 44 97 118 124 165 26
46 67 107 91 134 55 65 87 130 115 234 16 60 34 101 66 145 59 83 77 126 97
226 11 60 31 114 66 183 28 53 56 123 64 155 8 31 25 97 40 145 20 67 27 119
31 225 4 75 16 193 27 262 19 116 20 153 15 500 -6 403 -12 459 -72 695 -94
367 -194 623 -415 1065 -172 344 -443 800 -486 817 -7 3 -26 26 -42 51 -28 46
-92 112 -162 168 -19 15 -78 69 -130 119 -156 149 -294 249 -485 350 -61 32
-157 88 -215 123 -58 36 -130 80 -160 97 -30 18 -77 46 -105 63 -27 17 -106
47 -174 67 -77 22 -150 51 -190 75 -66 39 -129 59 -187 60 -17 0 -83 16 -145
36 -297 93 -370 108 -582 124 -76 5 -141 11 -145 14 -4 2 -36 7 -70 11 -34 3
-76 10 -94 16 -40 11 -42 11 -98 -5z m-1814 -1394 c23 -12 57 -39 76 -62 l35
-40 24 26 c13 14 56 41 96 61 133 66 269 56 350 -24 l34 -35 22 20 c43 41 137
75 217 80 63 4 85 0 128 -18 62 -27 106 -74 123 -131 16 -51 4 -73 -40 -77
-19 -2 -31 -8 -28 -15 2 -7 19 -11 40 -9 34 3 37 1 37 -22 0 -23 -60 -194
-347 -991 -36 -99 -71 -199 -78 -222 -27 -83 20 -155 110 -172 50 -9 95 -46
95 -77 0 -24 -28 -71 -45 -78 -28 -10 -79 -7 -132 9 -133 40 -228 204 -193
335 11 45 92 273 314 885 64 175 116 333 116 350 0 53 -21 70 -82 69 -99 -1
-196 -71 -240 -173 -22 -50 -214 -578 -256 -703 -15 -43 -32 -78 -38 -78 -7 0
-10 -8 -8 -17 7 -27 -113 -355 -138 -375 -22 -20 -69 -23 -97 -8 -10 5 -24 22
-30 38 -14 34 -38 -36 233 710 102 282 186 526 186 542 0 74 -98 92 -195 35
-60 -35 -103 -85 -130 -151 -13 -32 -30 -60 -37 -63 -40 -12 -58 -61 -22 -61
18 0 19 8 -21 -106 -19 -54 -42 -102 -50 -107 -10 -5 -13 -16 -9 -31 6 -27
-11 -44 -23 -23 -16 27 -54 27 -79 2 -29 -29 -30 -42 -4 -50 11 -3 20 -15 20
-26 0 -20 15 -26 25 -9 3 6 12 10 20 10 11 0 12 -6 4 -30 -6 -16 -15 -27 -21
-24 -6 4 -8 -1 -4 -12 7 -23 -122 -387 -161 -453 -42 -72 -112 -134 -198 -177
-78 -39 -80 -39 -194 -39 -110 0 -119 2 -185 33 -92 43 -150 92 -198 166 -125
194 -95 441 74 596 90 83 255 132 375 112 119 -20 262 -106 277 -167 7 -29
-15 -80 -39 -89 -36 -13 -74 -5 -111 25 -51 41 -82 56 -137 69 -53 11 -142 -2
-197 -30 -50 -26 -105 -87 -130 -143 -18 -40 -24 -46 -36 -36 -10 8 -14 8 -14
0 0 -6 6 -14 13 -16 8 -4 12 -28 12 -73 0 -114 59 -206 168 -264 34 -18 58
-23 127 -23 103 0 143 17 215 90 48 50 53 61 130 278 50 142 85 227 93 227 9
0 11 7 7 19 -3 11 17 81 48 167 63 173 77 231 77 319 0 83 -24 115 -91 122
-38 4 -50 1 -74 -20 -56 -48 -31 -130 44 -143 73 -13 104 -57 81 -114 -23 -56
-97 -65 -181 -22 -178 90 -181 335 -4 435 45 25 57 27 130 24 57 -2 92 -10
121 -25z m1699 -463 c26 -13 59 -39 73 -57 28 -37 34 -34 52 20 14 44 43 68
83 68 35 0 77 -40 77 -74 0 -39 -51 -166 -66 -166 -8 0 -14 -4 -14 -10 0 -5 4
-10 10 -10 9 0 -25 -103 -139 -415 -52 -141 -64 -218 -39 -243 33 -33 126 5
190 77 38 43 54 79 141 318 54 149 101 289 104 311 6 44 6 44 -50 57 -32 7
-57 52 -49 91 6 33 48 64 86 64 42 -1 108 -32 133 -64 l21 -26 49 30 c136 84
315 75 405 -22 l27 -29 53 34 c181 114 374 98 454 -39 34 -58 45 -115 33 -179
-5 -28 -47 -156 -94 -285 -84 -231 -100 -301 -76 -339 14 -22 87 -7 135 27 65
47 103 110 165 274 32 84 68 173 81 198 81 161 219 304 357 372 81 41 91 43
172 43 98 0 144 -18 202 -80 l34 -35 22 50 c24 55 56 76 98 66 33 -8 65 -41
65 -66 0 -11 -59 -183 -131 -383 -132 -363 -149 -426 -120 -460 40 -49 168 18
226 117 13 22 44 97 69 165 49 133 58 148 93 162 28 10 80 -7 93 -31 17 -32
11 -62 -35 -190 -54 -149 -92 -215 -164 -286 -77 -77 -156 -114 -241 -114 -90
0 -144 28 -185 97 l-31 50 -39 -34 c-22 -19 -73 -51 -114 -71 -71 -35 -80 -37
-171 -37 -90 0 -100 2 -146 30 -27 17 -63 51 -79 76 l-31 45 -46 -46 c-71 -70
-138 -102 -223 -108 -58 -4 -78 -1 -111 16 -123 63 -149 194 -79 392 25 71 46
112 63 128 22 18 24 24 13 31 -11 7 -6 30 28 126 47 133 51 175 19 204 -47 44
-136 33 -230 -29 -61 -41 -99 -98 -141 -215 -88 -247 -218 -599 -229 -618 -15
-30 -27 -37 -66 -37 -39 0 -82 38 -82 72 0 13 36 122 81 243 190 518 193 529
169 574 -5 10 -23 24 -40 31 -84 35 -244 -50 -299 -158 -15 -29 -69 -176 -96
-260 -4 -10 -10 -10 -26 -2 -17 10 -24 8 -39 -8 -18 -19 -93 -162 -85 -162 2
0 19 14 36 31 28 28 33 29 47 15 14 -14 14 -19 -2 -58 -9 -24 -38 -99 -63
-168 -25 -69 -53 -130 -62 -137 -22 -17 -81 -16 -101 2 -14 12 -21 12 -55 0
-51 -18 -146 -19 -188 -1 -35 14 -107 90 -107 113 0 20 -14 16 -64 -23 -25
-19 -77 -50 -114 -67 -61 -29 -76 -32 -162 -32 -85 0 -100 3 -140 27 -169 99
-193 364 -56 636 102 203 269 360 434 408 68 19 169 12 227 -17z m2196 -1557
c1 -15 2 -14 6 2 7 28 98 16 133 -19 l25 -25 0 -470 0 -470 -28 -27 -27 -28
-1501 -3 c-1081 -2 -1506 1 -1520 9 -15 8 -24 8 -32 0 -15 -15 -1206 -15
-1259 -1 -25 7 -43 22 -57 44 -20 32 -21 47 -21 449 0 322 3 417 13 421 10 5
10 7 0 12 -17 8 -16 29 2 64 33 64 -134 59 2168 59 1980 1 2097 0 2098 -17z
m-4759 -299 l338 -48 0 -56 c0 -48 -3 -57 -20 -62 -11 -3 -20 -13 -20 -23 0
-14 3 -15 12 -6 24 24 28 11 28 -83 0 -90 -1 -95 -22 -99 -13 -3 -122 -19
-243 -35 -121 -17 -247 -35 -280 -41 -165 -27 -262 -22 -299 15 -8 8 -19 15
-24 15 -22 0 -100 101 -112 145 -44 158 83 323 250 325 30 0 207 -21 392 -47z
m5885 34 c18 -7 53 -30 79 -51 118 -99 126 -271 17 -371 -37 -34 -61 -46 -47
-23 4 7 3 8 -5 4 -6 -4 -9 -12 -5 -17 9 -15 -77 -49 -127 -49 -40 0 -645 81
-706 95 -23 5 -23 8 -23 168 l0 163 318 46 c326 47 443 55 499 35z m-5134
-1103 c29 -10 61 -32 86 -59 l39 -43 23 24 c13 14 52 39 88 57 116 57 248 48
316 -23 l28 -29 30 21 c91 65 229 87 312 49 81 -36 133 -127 123 -216 -5 -36
-82 -258 -330 -945 -39 -106 -70 -204 -70 -217 0 -13 -7 -23 -14 -23 -8 0 -14
-7 -14 -15 0 -8 9 -15 20 -15 20 0 42 -30 38 -52 -2 -9 14 -13 55 -14 69 -2
107 -29 107 -76 0 -31 -30 -67 -57 -69 -44 -3 -90 4 -125 18 -49 20 -131 109
-146 160 -15 50 -16 86 -1 78 6 -4 8 -14 5 -22 -9 -23 3 -34 25 -23 16 9 19
20 18 65 -1 30 -5 55 -9 55 -4 0 -12 10 -19 23 -10 19 -9 32 9 79 11 31 27 61
35 68 7 6 11 18 8 25 -2 8 68 214 156 457 89 244 161 453 161 466 0 91 -162
76 -248 -23 -41 -46 -40 -45 -189 -455 -68 -190 -151 -419 -184 -510 -62 -170
-80 -200 -127 -200 -33 0 -72 37 -72 67 0 23 44 148 289 826 56 153 101 287
101 298 0 52 -80 76 -154 45 -37 -16 -111 -79 -127 -108 -6 -11 -37 -94 -68
-186 -104 -299 -194 -547 -203 -557 -4 -5 -8 3 -8 18 0 15 -3 27 -7 27 -21 -1
-33 -21 -43 -70 -7 -30 -21 -68 -32 -83 l-20 -28 32 16 c18 9 34 14 37 11 12
-11 -53 -123 -97 -167 -149 -149 -369 -170 -540 -51 -265 185 -228 586 67 724
152 72 363 36 463 -78 36 -42 38 -64 7 -100 -31 -36 -76 -35 -120 2 -53 45
-105 64 -178 64 -55 0 -77 -5 -124 -30 -43 -22 -61 -27 -75 -20 -24 13 -44
-11 -37 -46 2 -14 -4 -49 -15 -77 -70 -183 76 -379 271 -365 31 2 78 14 104
27 88 43 106 76 239 443 145 400 158 443 158 531 0 59 -3 71 -25 92 -45 46
-135 27 -149 -30 -11 -43 27 -94 70 -95 67 -1 99 -89 48 -129 -35 -27 -77 -26
-140 3 -174 81 -167 334 11 412 41 18 132 17 188 -2z m3187 -4 c29 -29 26 -52
-25 -194 -25 -70 -45 -132 -45 -137 0 -5 48 -9 108 -9 115 0 145 -10 161 -54
10 -26 -5 -72 -27 -82 -9 -5 -82 -11 -162 -14 l-145 -5 -107 -295 c-96 -264
-107 -301 -105 -354 2 -52 5 -62 30 -80 42 -31 145 -30 210 4 61 31 155 130
201 212 26 47 168 409 221 565 2 6 16 20 30 29 33 21 69 11 98 -28 23 -31 35
11 -121 -418 -112 -308 -117 -325 -102 -365 10 -25 14 -27 51 -22 51 7 107 45
147 101 17 23 54 105 83 182 63 170 93 231 154 311 178 238 433 321 573 187
25 -24 46 -44 47 -44 1 0 7 18 14 40 13 43 43 70 79 70 27 0 72 -42 72 -67 0
-10 -54 -167 -120 -350 -119 -327 -136 -393 -108 -421 30 -30 112 2 171 67 45
49 55 69 102 203 20 59 46 115 56 124 43 39 119 8 119 -48 0 -43 -83 -260
-123 -320 -94 -140 -234 -211 -354 -179 -47 13 -100 60 -115 102 l-10 28 -46
-36 c-26 -20 -76 -50 -112 -67 -56 -27 -76 -31 -145 -31 -109 0 -169 33 -221
121 -11 18 -15 15 -65 -32 -137 -129 -304 -124 -385 12 -10 17 -13 16 -50 -14
-21 -17 -66 -44 -99 -59 -53 -25 -71 -28 -160 -28 -112 0 -143 11 -207 73
l-37 35 -32 -27 c-66 -56 -128 -80 -205 -81 -60 0 -76 4 -111 27 -59 39 -78
85 -77 188 1 81 5 96 82 303 45 120 82 233 82 252 0 24 -7 39 -26 54 -65 51
-203 1 -273 -100 -14 -21 -35 -39 -45 -41 -26 -4 -45 -36 -28 -47 16 -10 6
-57 -37 -181 -36 -105 -150 -409 -162 -431 -12 -23 -78 -32 -105 -14 -18 12
-27 12 -60 0 -49 -18 -108 -18 -157 -1 -49 18 -73 40 -93 86 l-17 38 -46 -36
c-25 -19 -75 -49 -111 -66 -55 -26 -77 -31 -145 -31 -70 0 -86 4 -127 28 -119
70 -165 226 -119 407 104 415 510 693 719 493 25 -23 46 -43 47 -43 1 0 7 18
14 40 13 43 43 70 79 70 27 0 72 -42 72 -67 0 -11 -54 -167 -120 -348 -119
-328 -136 -395 -108 -423 41 -41 162 30 209 121 34 66 182 480 187 525 4 37 2
42 -15 42 -11 0 -32 9 -47 21 -52 41 -19 129 48 129 40 -1 109 -32 128 -58 14
-20 15 -20 88 16 68 34 81 37 159 37 93 0 124 -11 175 -61 73 -73 83 -154 36
-295 -18 -54 -37 -99 -42 -99 -4 0 -8 -9 -8 -20 0 -10 -20 -73 -45 -140 -44
-118 -55 -188 -36 -219 13 -20 75 -8 122 24 76 50 98 98 296 641 l30 82 -60 4
c-67 5 -87 21 -87 73 0 52 29 69 124 75 l81 5 58 160 c32 88 65 167 74 177 22
24 78 23 103 -2z m559 -96 c26 -33 26 -39 -1 -109 -25 -66 -61 -90 -108 -73
-46 16 -54 50 -30 124 23 69 38 83 87 84 22 0 38 -8 52 -26z"/>
<path d="M3310 7021 c0 -12 39 -21 45 -11 3 4 -2 11 -11 14 -22 8 -34 7 -34
-3z"/>
<path d="M3197 6684 c-9 -10 4 -34 19 -34 8 0 14 4 14 9 0 12 -26 32 -33 25z"/>
<path d="M3670 6620 c0 -5 5 -10 10 -10 6 0 10 5 10 10 0 6 -4 10 -10 10 -5 0
-10 -4 -10 -10z"/>
<path d="M2263 6384 c-3 -9 -1 -25 5 -35 7 -10 9 -25 6 -34 -6 -16 4 -19 29
-9 14 5 14 10 0 50 -16 46 -29 55 -40 28z"/>
<path d="M2516 6305 c-3 -8 -1 -15 4 -15 6 0 10 7 10 15 0 8 -2 15 -4 15 -2 0
-6 -7 -10 -15z"/>
<path d="M4159 6501 c-194 -76 -383 -360 -382 -576 0 -161 88 -216 232 -144
195 97 363 377 349 579 -6 82 -29 127 -73 146 -44 18 -70 17 -126 -5z"/>
<path d="M6690 6511 c-99 -32 -223 -140 -296 -257 -70 -113 -107 -222 -108
-324 -1 -73 2 -90 22 -123 29 -46 49 -57 105 -57 56 0 144 43 215 105 44 39
57 46 80 40 20 -4 33 -1 42 10 11 13 8 15 -19 15 -17 0 -31 1 -31 3 0 2 24 40
54 85 118 179 147 384 68 473 -29 33 -85 45 -132 30z"/>
<path d="M6106 5934 c-9 -22 -8 -24 9 -24 8 0 15 9 15 20 0 24 -15 27 -24 4z"/>
<path d="M5671 5826 c-7 -9 -8 -17 -2 -20 13 -9 43 4 38 17 -5 17 -23 19 -36
3z"/>
<path d="M6515 5690 c-3 -5 1 -10 10 -10 9 0 13 5 10 10 -3 6 -8 10 -10 10 -2
0 -7 -4 -10 -10z"/>
<path d="M6390 5080 c0 -5 5 -10 10 -10 6 0 10 5 10 10 0 6 -4 10 -10 10 -5 0
-10 -4 -10 -10z"/>
<path d="M6420 5060 c0 -5 5 -10 10 -10 6 0 10 5 10 10 0 6 -4 10 -10 10 -5 0
-10 -4 -10 -10z"/>
<path d="M6528 5059 c-10 -5 -18 -18 -18 -27 0 -13 2 -14 9 -4 7 11 11 10 24
-2 10 -10 18 -12 22 -6 4 6 11 8 17 4 6 -4 8 3 6 17 -3 27 -32 35 -60 18z"/>
<path d="M2650 5051 c0 -5 -9 -11 -20 -14 -33 -8 -23 -24 13 -19 32 5 50 19
41 34 -7 11 -34 10 -34 -1z"/>
<path d="M6560 4985 c-7 -9 -10 -18 -7 -22 8 -7 37 15 37 28 0 14 -16 11 -30
-6z"/>
<path d="M2980 4910 c0 -5 5 -10 10 -10 6 0 10 5 10 10 0 6 -4 10 -10 10 -5 0
-10 -4 -10 -10z"/>
<path d="M6390 4859 c0 -5 5 -7 10 -4 6 3 10 8 10 11 0 2 -4 4 -10 4 -5 0 -10
-5 -10 -11z"/>
<path d="M5760 4720 c0 -5 5 -10 11 -10 5 0 7 5 4 10 -3 6 -8 10 -11 10 -2 0
-4 -4 -4 -10z"/>
<path d="M4540 4662 c0 -5 11 -12 25 -15 16 -3 24 0 22 7 -4 14 -47 21 -47 8z"/>
<path d="M4650 4646 c0 -8 5 -18 10 -21 6 -3 10 3 10 14 0 12 -4 21 -10 21 -5
0 -10 -6 -10 -14z"/>
<path d="M4305 4580 c3 -5 10 -10 16 -10 5 0 9 5 9 10 0 6 -7 10 -16 10 -8 0
-12 -4 -9 -10z"/>
<path d="M4218 4543 c-3 -16 -8 -35 -12 -44 -6 -13 -1 -16 19 -16 20 0 25 4
22 21 -1 11 -6 27 -10 34 -5 6 -5 17 -2 22 3 6 2 10 -3 10 -5 0 -12 -12 -14
-27z"/>
<path d="M4090 4507 c0 -16 38 -39 52 -31 5 4 14 1 18 -6 5 -9 9 -9 15 -1 4 7
-5 16 -24 22 -17 6 -31 15 -31 20 0 5 -7 9 -15 9 -8 0 -15 -6 -15 -13z"/>
<path d="M3986 4482 c-3 -6 -1 -14 5 -17 15 -10 25 3 12 16 -7 7 -13 7 -17 1z"/>
<path d="M4056 4482 c-4 -6 -2 -32 3 -49 1 -2 11 7 22 18 17 17 19 23 8 30
-18 11 -26 11 -33 1z"/>
<path d="M3737 4389 c-3 -13 -1 -19 6 -16 15 5 22 37 9 37 -5 0 -12 -9 -15
-21z"/>
<path d="M4200 4381 c0 -5 -11 -12 -25 -15 -40 -10 -29 -24 17 -22 34 2 42 6
45 24 2 16 -2 22 -17 22 -11 0 -20 -4 -20 -9z"/>
<path d="M3621 4304 c0 -11 3 -14 6 -6 3 7 2 16 -1 19 -3 4 -6 -2 -5 -13z"/>
<path d="M3810 4304 c0 -9 7 -14 17 -12 25 5 28 28 4 28 -12 0 -21 -6 -21 -16z"/>
<path d="M3684 4296 c-6 -17 2 -36 17 -36 12 0 12 37 -1 45 -6 3 -13 -1 -16
-9z"/>
<path d="M4231 4274 c0 -11 3 -14 6 -6 3 7 2 16 -1 19 -3 4 -6 -2 -5 -13z"/>
<path d="M3649 4267 c-1 -1 -3 -11 -4 -23 -2 -17 2 -20 21 -16 13 2 24 5 24 6
0 3 -40 36 -41 33z"/>
<path d="M3730 4236 c0 -9 7 -16 16 -16 17 0 14 22 -4 28 -7 2 -12 -3 -12 -12z"/>
<path d="M4530 4240 c0 -5 7 -10 15 -10 8 0 15 5 15 10 0 6 -7 10 -15 10 -8 0
-15 -4 -15 -10z"/>
<path d="M3265 4090 c-4 -6 -3 -16 3 -22 6 -6 12 -6 17 2 4 6 3 16 -3 22 -6 6
-12 6 -17 -2z"/>
<path d="M1717 4763 c-3 -5 -2 -15 2 -22 7 -10 10 -10 16 -1 4 6 3 16 -3 22
-5 5 -12 6 -15 1z"/>
<path d="M2065 4730 c3 -5 13 -10 21 -10 8 0 12 5 9 10 -3 6 -13 10 -21 10 -8
0 -12 -4 -9 -10z"/>
<path d="M1801 4676 c12 -26 39 -38 60 -26 10 7 9 11 -2 22 -8 8 -20 13 -27
10 -6 -2 -12 1 -12 7 0 6 -7 11 -15 11 -12 0 -13 -5 -4 -24z"/>
<path d="M2052 4664 c-12 -8 -22 -24 -22 -35 0 -36 42 -14 46 25 3 31 4 30
-24 10z"/>
<path d="M1800 4629 c0 -5 5 -7 10 -4 6 3 10 8 10 11 0 2 -4 4 -10 4 -5 0 -10
-5 -10 -11z"/>
<path d="M1624 4616 c-3 -9 -13 -16 -20 -16 -8 0 -19 -11 -26 -25 -8 -18 -15
-22 -27 -15 -12 6 -19 2 -28 -16 -9 -19 -8 -24 3 -24 8 0 14 -7 14 -15 0 -24
20 -17 30 11 11 29 53 66 83 74 18 5 18 6 -2 24 -19 17 -21 17 -27 2z"/>
<path d="M1400 4455 c-9 -11 -22 -14 -37 -10 -29 7 -32 -18 -4 -42 11 -9 17
-22 14 -29 -5 -15 6 -18 31 -8 8 3 12 12 9 21 -3 8 0 25 7 39 17 31 0 54 -20
29z"/>
<path d="M7675 4550 c-3 -5 1 -10 9 -10 9 0 16 5 16 10 0 6 -4 10 -9 10 -6 0
-13 -4 -16 -10z"/>
<path d="M3317 3074 c-4 -4 -7 -21 -7 -37 0 -27 2 -29 27 -22 15 3 31 12 35
18 12 19 9 37 -6 37 -8 0 -21 2 -28 5 -8 3 -17 2 -21 -1z"/>
<path d="M2782 2628 c-7 -7 -12 -20 -12 -29 0 -10 -5 -19 -12 -21 -15 -5 -1
-28 17 -28 13 0 45 58 45 81 0 13 -24 11 -38 -3z"/>
<path d="M3142 2399 c2 -6 8 -10 13 -10 5 0 11 4 13 10 2 6 -4 11 -13 11 -9 0
-15 -5 -13 -11z"/>
<path d="M5560 3323 c0 -13 29 -38 35 -31 3 3 -4 13 -15 23 -11 10 -20 13 -20
8z"/>
<path d="M4917 3223 c-14 -13 -6 -33 12 -33 30 0 51 11 51 26 0 14 -51 20 -63
7z"/>
<path d="M4648 3176 c-27 -8 -35 -15 -29 -24 12 -20 51 -11 69 16 16 24 13 25
-40 8z"/>
<path d="M3909 3143 c-72 -36 -186 -151 -234 -236 -99 -178 -113 -365 -31
-422 32 -23 96 -18 157 12 69 34 184 149 233 232 38 65 86 193 86 229 0 15 5
18 25 14 14 -2 28 -8 31 -13 7 -13 34 -11 34 2 0 6 -12 26 -26 45 -25 33 -26
35 -10 59 20 31 12 65 -15 65 -14 0 -19 -7 -19 -30 0 -40 -16 -38 -34 4 -30
71 -102 86 -197 39z"/>
<path d="M6730 3156 c-130 -46 -270 -214 -325 -389 -39 -122 -33 -218 17 -268
64 -64 175 -26 303 104 117 119 185 265 186 402 2 137 -66 193 -181 151z"/>
<path d="M4685 3090 c3 -5 8 -10 11 -10 2 0 4 5 4 10 0 6 -5 10 -11 10 -5 0
-7 -4 -4 -10z"/>
<path d="M4555 3000 c-3 -5 -4 -10 -1 -10 2 0 12 -3 20 -6 12 -5 15 -2 10 10
-7 18 -20 21 -29 6z"/>
<path d="M4555 2930 c-3 -5 -2 -10 4 -10 5 0 13 5 16 10 3 6 2 10 -4 10 -5 0
-13 -4 -16 -10z"/>
<path d="M4125 2880 c3 -5 8 -10 11 -10 2 0 4 5 4 10 0 6 -5 10 -11 10 -5 0
-7 -4 -4 -10z"/>
<path d="M4170 2880 c0 -5 5 -10 10 -10 6 0 10 5 10 10 0 6 -4 10 -10 10 -5 0
-10 -4 -10 -10z"/>
<path d="M4900 2490 c0 -5 5 -10 11 -10 5 0 7 5 4 10 -3 6 -8 10 -11 10 -2 0
-4 -4 -4 -10z"/>
<path d="M5010 2340 c0 -5 7 -10 15 -10 8 0 15 5 15 10 0 6 -7 10 -15 10 -8 0
-15 -4 -15 -10z"/>
</g>
</svg>
